<?xml version="1.0" encoding="UTF-8"?>
<svg version="1.1" viewBox="0 0 16 16" xmlns="http://www.w3.org/2000/svg">
 <defs>
  <linearGradient id="linearGradient2849" x1="1" x2="15" y1="8" y2="8" gradientTransform="translate(0,-16)" gradientUnits="userSpaceOnUse">
   <stop stop-color="#e5e5e5" offset="0"/>
   <stop stop-color="#9a9a9a" offset="1"/>
  </linearGradient>
 </defs>
 <rect width="16" height="16" fill="#828282" stroke-width=".5"/>
 <rect transform="rotate(90)" x="1" y="-15" width="14" height="14" fill="url(#linearGradient2849)" stroke-width=".5"/>
 <g transform="translate(7.9749 8.0074)" fill="#fff" stroke="#5b5b5b">
  <path d="m3.745-0.75191 1.1725-0.23541 0.07765-0.00627 1.3508 0.48535v1.0165l-1.3508 0.48535-0.07765-0.00627-1.1725-0.23541-0.5652 1.3645 0.99552 0.6626 0.05934 0.05048 0.61196 1.2983-0.71877 0.71877-1.2983-0.61196-0.05048-0.05934-0.6626-0.99552-1.3645 0.5652 0.23541 1.1725 0.00627 0.07765-0.48535 1.3508h-1.0165l-0.48535-1.3508 0.00627-0.07765 0.23541-1.1725-1.3645-0.5652-0.6626 0.99552-0.05048 0.05934-1.2983 0.61196-0.71877-0.71877 0.61196-1.2983 0.05934-0.05048 0.99552-0.6626-0.5652-1.3645-1.1725 0.23541-0.07765 0.00627-1.3508-0.48535v-1.0165l1.3508-0.48535 0.07765 0.00627 1.1725 0.23541 0.5652-1.3645-0.99552-0.6626-0.05934-0.05048-0.61196-1.2983 0.71877-0.71877 1.2983 0.61196 0.05048 0.05934 0.6626 0.99552 1.3645-0.5652-0.23541-1.1725-0.00627-0.07765 0.48535-1.3508h1.0165l0.48535 1.3508-0.00627 0.07765-0.23541 1.1725 1.3645 0.5652 0.6626-0.99552 0.05048-0.05934 1.2983-0.61196 0.71877 0.71877-0.61196 1.2983-0.05934 0.05048-0.99552 0.6626z" fill="#fff" stroke="#5b5b5b"/>
 </g>
 <circle cx="8" cy="8" r="2" fill="#6b6b6b"/>
</svg>
